HIERARCHY
ROOT Hips
{
	OFFSET 0.000000 0.000000 0.000000
	CHANNELS 6 Xposition Yposition Zposition Zrotation Yrotation Xrotation 
	JOINT LHipJoint
	{
		OFFSET 0.000000 0.000000 0.000000
		CHANNELS 3 Zrotation Yrotation Xrotation
		JOINT LeftUpLeg
		{
			OFFSET 1.363060 -1.794630 0.839290
			CHANNELS 3 Zrotation Yrotation Xrotation
			JOINT LeftLeg
			{
				OFFSET 2.448110 -6.726130 0.000000
				CHANNELS 3 Zrotation Yrotation Xrotation
				JOINT LeftFoot
				{
					OFFSET 2.562200 -7.039590 0.000000
					CHANNELS 3 Zrotation Yrotation Xrotation
					JOINT LeftToeBase
					{
						OFFSET 0.157640 -0.433110 2.322550
						CHANNELS 3 Zrotation Yrotation Xrotation
						End Site
						{
							OFFSET 0.000000 0.000000 0.000000
						}
					}
				}
			}
		}
	}
	JOINT RHipJoint
	{
		OFFSET 0.000000 0.000000 0.000000
		CHANNELS 3 Zrotation Yrotation Xrotation
		JOINT RightUpLeg
		{
			OFFSET -1.305520 -1.794630 0.839290
			CHANNELS 3 Zrotation Yrotation Xrotation
			JOINT RightLeg
			{
				OFFSET -2.542530 -6.985550 0.000000
				CHANNELS 3 Zrotation Yrotation Xrotation
				JOINT RightFoot
				{
					OFFSET -2.568260 -7.056230 0.000000
					CHANNELS 3 Zrotation Yrotation Xrotation
					JOINT RightToeBase
					{
						OFFSET -0.164730 -0.452590 2.363150
						CHANNELS 3 Zrotation Yrotation Xrotation
						End Site
						{
							OFFSET 0.000000 0.000000 0.000000
						}
					}
				}
			}
		}
	}
	JOINT LowerBack
	{
		OFFSET 0.000000 0.000000 0.000000
		CHANNELS 3 Zrotation Yrotation Xrotation
		JOINT Spine
		{
			OFFSET 0.028270 2.035590 -0.193380
			CHANNELS 3 Zrotation Yrotation Xrotation
			JOINT Spine1
			{
				OFFSET 0.056720 2.048850 -0.042750
				CHANNELS 3 Zrotation Yrotation Xrotation
				JOINT Neck
				{
					OFFSET 0.000000 0.000000 0.000000
					CHANNELS 3 Zrotation Yrotation Xrotation
					JOINT Neck1
					{
						OFFSET -0.054170 1.746240 0.172020
						CHANNELS 3 Zrotation Yrotation Xrotation
						JOINT Head
						{
							OFFSET 0.104070 1.761360 -0.123970
							CHANNELS 3 Zrotation Yrotation Xrotation
							End Site
							{
								OFFSET 0.000000 0.000000 0.000000
							}
						}
					}
				}
				JOINT LeftShoulder
				{
					OFFSET 0.000000 0.000000 0.000000
					CHANNELS 3 Zrotation Yrotation Xrotation
					JOINT LeftArm
					{
						OFFSET 3.362410 1.200890 -0.311210
						CHANNELS 3 Zrotation Yrotation Xrotation
						JOINT LeftForeArm
						{
							OFFSET 4.983000 -0.000000 -0.000000
							CHANNELS 3 Zrotation Yrotation Xrotation
							JOINT LeftHand
							{
								OFFSET 3.483560 -0.000000 -0.000000
								CHANNELS 3 Zrotation Yrotation Xrotation
								JOINT LeftFingerBase
								{
									OFFSET 0.000000 0.000000 0.000000
									CHANNELS 3 Zrotation Yrotation Xrotation
									JOINT LeftHandIndex1
									{
										OFFSET 0.715260 -0.000000 -0.000000
										CHANNELS 3 Zrotation Yrotation Xrotation
										End Site
										{
											OFFSET 0.000000 0.000000 0.000000
										}
									}
								}
								JOINT LThumb
								{
									OFFSET 0.000000 0.000000 0.000000
									CHANNELS 3 Zrotation Yrotation Xrotation
									End Site
									{
										OFFSET 0.000000 0.000000 0.000000
									}
								}
							}
						}
					}
				}
				JOINT RightShoulder
				{
					OFFSET 0.000000 0.000000 0.000000
					CHANNELS 3 Zrotation Yrotation Xrotation
					JOINT RightArm
					{
						OFFSET -3.136600 1.374050 -0.404650
						CHANNELS 3 Zrotation Yrotation Xrotation
						JOINT RightForeArm
						{
							OFFSET -5.241900 -0.000000 -0.000000
							CHANNELS 3 Zrotation Yrotation Xrotation
							JOINT RightHand
							{
								OFFSET -3.444170 -0.000000 -0.000000
								CHANNELS 3 Zrotation Yrotation Xrotation
								JOINT RightFingerBase
								{
									OFFSET 0.000000 0.000000 0.000000
									CHANNELS 3 Zrotation Yrotation Xrotation
									JOINT RightHandIndex1
									{
										OFFSET -0.622530 -0.000000 -0.000000
										CHANNELS 3 Zrotation Yrotation Xrotation
										End Site
										{
											OFFSET 0.000000 0.000000 0.000000
										}
									}
								}
								JOINT RThumb
								{
									OFFSET 0.000000 0.000000 0.000000
									CHANNELS 3 Zrotation Yrotation Xrotation
									End Site
									{
										OFFSET 0.000000 0.000000 0.000000
									}
								}
							}
						}
					}
				}
			}
		}
	}
}
MOTION
Frames: 7
Frame Time: 0.008333
4.252071 17.372868 1.179724 11.456368 -46.919452 10.965067 -9.917796 -0.370300 5.000550 -7.697427 -17.990182 -22.284588 -2.839682 -1.413358 -4.812434 -0.427090 -0.096820 13.229558 0.586800 0.000000 -38.192400 10.248002 -0.282318 -4.635772 1.455494 -28.106304 -11.848801 1.586757 0.822736 -2.937877 -2.427799 -23.853116 3.533334 -8.218300 0.000000 -58.521800 0.580109 2.670174 0.855372 1.003744 2.731364 -2.556148 2.334579 2.630161 -0.171291 -8.430178 -5.024962 -4.541409 0.704607 -0.001328 0.791693 0.000000 0.000000 0.000000 1.873652 8.147108 -3.022871 -82.162664 -5.681818 26.326943 179.446669 -57.298702 -179.971333 -2.890680 1.859968 -0.042646 0.348097 0.421717 0.000000 0.000000 0.000000 0.000000 0.000000 0.000000 0.000000 -24.794818 1.604908 2.948355 -16.385751 28.309348 -85.639805 -2.490585 15.297205 -0.125787 -15.374506 -4.059372 0.513975 0.446745 -0.352568 -0.000000 0.000000 0.000000 0.000000 0.000000 0.000000 0.000000 
4.266206 17.377317 1.184251 11.262590 -47.128266 11.268368 -9.918832 -0.346523 4.945589 -7.659306 -17.713240 -22.589707 -2.825421 -1.393668 -4.675781 -0.441047 -0.292390 13.209637 0.518100 0.000000 -38.169800 10.243627 -0.263620 -4.570715 1.648006 -27.666083 -11.941124 1.555054 0.867813 -3.144894 -2.547302 -24.148843 3.713040 -8.324900 -0.000001 -58.340000 0.468068 2.479019 0.894744 1.000413 2.550921 -2.592229 2.321574 2.452220 -0.338972 -7.885579 -4.417566 -4.160471 0.616143 -0.014148 0.893380 0.000000 0.000000 0.000000 1.946131 7.934458 -2.939257 -82.865622 -4.339222 25.034736 179.417808 -57.106935 -179.972295 -2.774202 1.699586 -0.036361 0.349921 0.434971 0.000000 0.000000 0.000000 0.000000 0.000000 0.000000 0.000000 -24.208355 2.083867 2.627164 -15.367815 28.046826 -79.958587 -2.212132 18.780485 -0.119306 -13.498175 -1.460592 0.120164 0.366413 -0.467117 -0.000000 0.000000 0.000000 0.000000 0.000000 0.000000 0.000000 
4.282015 17.381153 1.186864 11.064647 -47.422071 11.557097 -9.918080 -0.328736 4.868773 -7.621699 -17.399687 -22.846772 -2.810010 -1.377972 -4.573618 -0.447691 -0.424646 13.183273 0.470000 0.000001 -38.165001 10.243849 -0.245229 -4.498532 1.824950 -27.149800 -12.001475 1.517926 0.914080 -3.393489 -2.689299 -24.427450 3.908753 -8.409299 0.000000 -58.166700 0.312649 2.301424 0.970994 0.991561 2.387228 -2.624370 2.318365 2.291745 -0.527303 -7.294804 -3.877799 -3.734128 0.512657 -0.028658 1.007141 0.000000 0.000000 0.000000 1.998750 7.725360 -2.825567 -83.533117 -3.171542 23.822880 179.414246 -56.963109 -179.973967 -2.580480 1.535389 -0.029435 0.346084 0.449417 0.000000 0.000000 0.000000 0.000000 0.000000 0.000000 0.000000 -23.447415 2.452377 2.212292 -14.350900 27.882196 -75.192611 -2.065108 22.946112 -0.126958 -13.391279 1.435167 -0.242917 0.330507 -0.580232 -0.000000 0.000000 0.000000 0.000000 0.000000 0.000000 0.000000 
4.299298 17.384064 1.187278 10.866262 -47.788701 11.829664 -9.915799 -0.319433 4.773332 -7.578269 -17.070543 -23.054501 -2.792824 -1.366812 -4.508447 -0.447004 -0.480244 13.149228 0.447900 0.000000 -38.185600 10.247060 -0.227373 -4.424236 1.985143 -26.579768 -12.036915 1.478354 0.959510 -3.670874 -2.846434 -24.673699 4.107441 -8.465800 0.000001 -58.007799 0.119736 2.145536 1.085142 0.977166 2.247990 -2.653503 2.324981 2.156600 -0.740556 -6.674048 -3.416155 -3.276050 0.397608 -0.044326 1.129402 0.000000 0.000000 0.000000 2.042910 7.508045 -2.687866 -84.155941 -2.185847 22.713683 179.428070 -56.883991 -179.976477 -2.293549 1.374738 -0.022466 0.336355 0.464511 0.000000 0.000000 0.000000 0.000000 0.000000 0.000000 0.000000 -22.533939 2.716648 1.715257 -13.247523 27.790265 -71.209699 -1.999051 27.798343 -0.146850 -14.662890 4.086017 -0.626264 0.324161 -0.670358 -0.000000 0.000000 0.000000 0.000000 0.000000 0.000000 0.000000 
4.317509 17.385877 1.185434 10.676075 -48.215900 12.082851 -9.912437 -0.320040 4.663851 -7.521034 -16.752590 -23.217227 -2.772048 -1.359525 -4.470299 -0.438108 -0.441930 13.100389 0.458600 0.000001 -38.235700 10.251201 -0.209696 -4.354178 2.127080 -25.981907 -12.054249 1.439373 1.002191 -3.962887 -3.009674 -24.871782 4.299364 -8.490600 -0.000000 -57.869300 -0.099879 2.015286 1.236704 0.957251 2.136299 -2.679789 2.336554 2.050008 -0.978367 -6.039875 -3.024936 -2.802984 0.274360 -0.060577 1.255595 0.000000 0.000000 0.000000 2.085907 7.276177 -2.533365 -84.717590 -1.380409 21.722081 179.451765 -56.881153 -179.979922 -1.904509 1.223639 -0.015756 0.320837 0.479655 0.000000 0.000000 0.000000 0.000000 0.000000 0.000000 0.000000 -21.500423 2.899116 1.162832 -11.994251 27.736734 -67.862747 -1.955264 33.282071 -0.174440 -16.830377 6.213925 -1.049079 0.331364 -0.729357 -0.000000 0.000000 0.000000 0.000000 0.000000 0.000000 0.000000 
4.336363 17.386605 1.181512 10.495172 -48.690127 12.317951 -9.910018 -0.330317 4.543621 -7.449483 -16.450217 -23.337277 -2.747931 -1.355987 -4.464232 -0.422108 -0.321549 13.042551 0.497800 0.000000 -38.312900 10.253484 -0.192193 -4.292343 2.254376 -25.379267 -12.064050 1.403899 1.041077 -4.254627 -3.169497 -25.012508 4.475462 -8.484000 -0.000000 -57.752199 -0.329575 1.910181 1.420640 0.931874 2.050343 -2.702610 2.342145 1.970203 -1.232991 -5.404753 -2.693474 -2.335200 0.145889 -0.076823 1.380109 0.000000 0.000000 0.000000 2.136824 7.029641 -2.371025 -85.202222 -0.747160 20.856140 179.478117 -56.955432 -179.984336 -1.413497 1.086396 -0.010009 0.300098 0.494245 0.000000 0.000000 0.000000 0.000000 0.000000 0.000000 0.000000 -20.385731 3.023252 0.594118 -10.561250 27.693429 -65.000723 -1.882386 39.270957 -0.204225 -19.429990 7.664131 -1.470175 0.341616 -0.757675 -0.000000 0.000000 0.000000 0.000000 0.000000 0.000000 0.000000 
4.355392 17.386362 1.175774 10.326511 -49.197779 12.536145 -9.909925 -0.348782 4.416799 -7.363412 -16.167036 -23.419818 -2.720663 -1.355576 -4.490001 -0.399966 -0.133665 12.979679 0.560100 0.000000 -38.413000 10.251910 -0.174693 -4.241814 2.371098 -24.793339 -12.075892 1.374312 1.075467 -4.531264 -3.316292 -25.090601 4.628490 -8.449200 -0.000000 -57.656500 -0.554388 1.826207 1.629582 0.900309 1.984852 -2.720262 2.327105 1.911844 -1.490111 -4.773254 -2.418954 -1.893291 0.014807 -0.092520 1.497117 0.000000 0.000000 0.000000 2.207980 6.773262 -2.210564 -85.597554 -0.274947 20.119786 179.501709 -57.104543 -179.989676 -0.830299 0.966231 -0.005235 0.275055 0.507706 0.000000 0.000000 0.000000 0.000000 0.000000 0.000000 0.000000 -19.227204 3.101730 0.052071 -8.948659 27.656529 -62.486120 -1.747473 45.573326 -0.231093 -22.023408 8.388578 -1.812765 0.349751 -0.761460 -0.000000 0.000000 0.000000 0.000000 0.000000 0.000000 0.000000 
